<svg width="20" height="24" viewBox="0 0 20 24" version="1.1" xmlns="http://www.w3.org/2000/svg"><g id="Symbols" stroke="none" stroke-width="1" fill="none" fill-rule="evenodd"><g id="rodape" transform="translate(-587 -134)" fill="#FFF"><g id="Group-5"><g id="Page-1" transform="translate(587 134)"><path d="M7 14.768h6v-4H7v4zm-1 1h8v-6H6v6z" id="Fill-1"/><path d="M13 10.268h-1v-1.5c0-1.103-.897-2-2-2s-2 .897-2 2v1.5H7v-1.5c0-1.655 1.345-3 3-3s3 1.345 3 3v1.5z" id="Fill-2"/><path d="M1 3.768v7.824a8.508 8.508 0 003.613 6.955L10 22.333l5.387-3.786A8.508 8.508 0 0019 11.592V3.768h-2.88a7.475 7.475 0 01-4.161-1.26L10 1.202 8.041 2.508a7.475 7.475 0 01-4.16 1.26H1zm9 19.787l-5.963-4.19A9.51 9.51 0 010 11.592V2.768h3.88a6.48 6.48 0 003.607-1.092L10 0l2.514 1.676a6.48 6.48 0 003.605 1.092H20v8.824a9.51 9.51 0 01-4.037 7.773L10 23.555z" id="Fill-4"/></g></g></g></g></svg>