<svg width="47" height="33" viewBox="0 0 47 33" version="1.1" xmlns="http://www.w3.org/2000/svg"><g id="v2" stroke="none" stroke-width="1" fill="none" fill-rule="evenodd"><g id="home-nerdz" transform="translate(-1104 -2182)"><g id="Group-42-Copy" transform="translate(209 2162)"><g id="Page-1" transform="translate(895 20)"><path id="Fill-3" fill="#FFF" d="M23.637 32.425L.421 13.895 6.979.682h33.315l6.559 13.211z"/><path d="M31.77 10.74l-5.23-.755-2.344-4.737a.63.63 0 00-1.13.002L20.73 9.99l-5.227.765a.631.631 0 00-.35 1.076l3.789 3.685-.888 5.21a.633.633 0 00.622.735.627.627 0 00.294-.073l4.675-2.463 4.68 2.455a.63.63 0 00.914-.666l-.9-5.208 3.782-3.693a.629.629 0 00-.35-1.075z" id="Fill-1" fill="#000"/><path d="M23.637 28.25L4.515 12.986l4.489-9.041H38.27l4.488 9.041-19.12 15.262zM38.661 2.684H8.613a.63.63 0 00-.565.35L3.16 12.883a.63.63 0 00.172.773l19.912 15.893a.627.627 0 00.787 0l19.911-15.893a.63.63 0 00.172-.773l-4.888-9.848a.63.63 0 00-.565-.35z" id="Fill-6" fill="#000"/></g></g></g></g></svg>