<svg width="55" height="10" viewBox="0 0 55 10" version="1.1" xmlns="http://www.w3.org/2000/svg"><g id="v2" stroke="none" stroke-width="1" fill="none" fill-rule="evenodd"><g id="home-nerdz" transform="translate(-642 -2192)"><g id="Group-42-Copy" transform="translate(209 2162)"><g id="Page-1-Copy-12" transform="translate(433 30)"><path id="Fill-1" fill="#000" d="M6.154 0v3.214H7.76v1.607h1.607v1.607h1.607v1.607h1.607v1.607h9.642V8.035h1.607V6.428h1.607V4.821h1.607V3.214h1.607V1.607h3.214v1.607h1.607v1.607h1.607v1.607h1.607v1.607h1.607v1.607h9.642V8.035h1.607V6.428h1.607V4.821h1.607V3.214h1.607V0z"/><path id="Rectangle-3" fill="#000" d="M0 0h6.923v2.308H0z"/><path id="Fill-2" fill="#FFF" d="M12.582 6.428h1.607V4.821h-1.607z"/><path id="Fill-3" fill="#FFF" d="M14.189 8.035h1.607V6.428h-1.607z"/><path id="Fill-4" fill="#FFF" d="M14.189 4.821h1.607V3.214h-1.607z"/><path id="Fill-5" fill="#FFF" d="M15.796 6.428h1.607V4.821h-1.607z"/><path id="Fill-6" fill="#FFF" d="M17.403 8.035h1.607V6.428h-1.607z"/><path id="Fill-7" fill="#FFF" d="M12.582 3.214h1.607V1.607h-1.607z"/><path id="Fill-8" fill="#FFF" d="M38.294 6.428H39.9V4.821h-1.607z"/><path id="Fill-9" fill="#FFF" d="M39.9 8.035h1.608V6.428H39.9z"/><path id="Fill-10" fill="#FFF" d="M39.9 4.821h1.608V3.214H39.9z"/><path id="Fill-11" fill="#FFF" d="M41.508 6.428h1.607V4.821h-1.607z"/><path id="Fill-12" fill="#FFF" d="M43.115 8.035h1.607V6.428h-1.607z"/><path id="Fill-13" fill="#FFF" d="M38.294 3.214H39.9V1.607h-1.607z"/></g></g></g></g></svg>